<svg width="255" height="226" viewBox="0 0 255 226" fill="none" xmlns="http://www.w3.org/2000/svg">
<ellipse cx="22.534" cy="19.3388" rx="22.534" ry="19.3388" transform="matrix(0.856913 0.515461 -0.505014 0.863111 97.3731 61.8923)" fill="#7F10FF"/>
<ellipse cx="101.138" cy="142.701" rx="66.8186" ry="53.1845" transform="rotate(-27.7724 101.138 142.701)" fill="#9D47FF"/>
<ellipse cx="29.3062" cy="25.0623" rx="29.3062" ry="25.0623" transform="matrix(0.95771 0.287736 -0.27467 0.961539 31.1167 97.9187)" fill="#9D47FF"/>
<ellipse cx="13.1231" cy="11.2573" rx="13.1231" ry="11.2573" transform="matrix(0.985208 0.17136 -0.158412 0.987373 36.6072 115.441)" fill="#C18AFF"/>
<path d="M59.4851 131.233C62.2073 131.447 57.1462 139.262 50.7859 142.661C44.4256 146.059 38.0083 146.453 36.4525 143.54C34.8966 140.627 38.7914 135.51 45.1517 132.112C51.512 128.714 56.7629 131.019 59.4851 131.233Z" fill="#C18AFF"/>
<ellipse cx="16.0161" cy="8.52837" rx="16.0161" ry="8.52837" transform="matrix(0.723743 -0.690069 0.684927 0.728611 77.186 176.644)" fill="#F4ABFF"/>
<ellipse cx="9.27423" cy="6.96395" rx="9.27423" ry="6.96395" transform="matrix(0.776012 -0.630718 0.626688 0.77927 152.672 116.278)" fill="#F4ABFF"/>
<ellipse cx="14.1121" cy="6.48118" rx="14.1121" ry="6.48118" transform="matrix(-0.513662 -0.857993 0.857217 -0.514955 105.452 152.726)" fill="#000D4D"/>
<ellipse cx="12.6269" cy="3.74608" rx="12.6269" ry="3.74608" transform="matrix(-0.759775 -0.650186 0.642983 -0.765881 151.5 115.283)" fill="#000D4D"/>
<ellipse cx="16.0161" cy="8.52837" rx="16.0161" ry="8.52837" transform="matrix(-0.978476 0.206362 0.213285 0.97699 99.5748 164.761)" fill="#F4ABFF"/>
<ellipse cx="17.441" cy="15.707" rx="17.441" ry="15.707" transform="matrix(-0.749644 0.661842 0.657196 0.75372 142.247 110.845)" fill="#C18AFF"/>
<ellipse cx="3.58713" cy="2.08568" rx="3.58713" ry="2.08568" transform="matrix(0.748707 -0.662901 0.658235 0.752812 134.31 126.025)" fill="#000D4D"/>
<path d="M41.6286 150.793C41.6286 150.793 34.3946 171.048 57.9314 188.124" stroke="#7F10FF" stroke-width="7" stroke-linecap="round"/>
<path d="M65.3854 192.718C65.3854 192.718 67.2259 195.15 73.4757 196.396" stroke="#7F10FF" stroke-width="6" stroke-linecap="round"/>
<path d="M100.262 89.2249C100.262 89.2249 89.1764 90.7151 78.4847 97.4199" stroke="#C18AFF" stroke-width="6" stroke-linecap="round"/>
<path d="M115.077 87.2648C115.077 87.2648 111.902 87.0964 108.913 88.0315" stroke="#C18AFF" stroke-width="6" stroke-linecap="round"/>
<path d="M142.979 129.74L141.891 137.48" stroke="#000D4D" stroke-width="3" stroke-linecap="round"/>
<path d="M142.979 129.74L148.761 130.097" stroke="#000D4D" stroke-width="3" stroke-linecap="round"/>
<path d="M142.123 38.5452L133.593 24.4217" stroke="#4D5FFF" stroke-width="6" stroke-linecap="round"/>
<path d="M124.593 38.5452L133.123 24.4217" stroke="#4D5FFF" stroke-width="6" stroke-linecap="round"/>
<path d="M133.459 33.4216V78.4216" stroke="#4D5FFF" stroke-width="7" stroke-linecap="round"/>
<path d="M166.193 93.0859L180.317 84.556" stroke="#FF4C82" stroke-width="6" stroke-linecap="round"/>
<path d="M166.193 75.5557L180.317 84.0856" stroke="#FF4C82" stroke-width="6" stroke-linecap="round"/>
<path d="M194.936 142.062L205.023 155.119" stroke="#000D4D" stroke-width="6" stroke-linecap="round"/>
<path d="M212.352 140.061L205.49 155.066" stroke="#000D4D" stroke-width="6" stroke-linecap="round"/>
<path d="M172.193 84.4216L142.459 84.4219" stroke="#FF4C82" stroke-width="7" stroke-linecap="round"/>
<path d="M142.291 74.1439C142.291 74.1439 183.394 -103.398 204.193 146.921" stroke="#000D4D" stroke-width="7" stroke-linecap="round"/>
</svg>
