<svg width="425" height="167" viewBox="0 0 425 167" fill="none" xmlns="http://www.w3.org/2000/svg">
<g clip-path="url(#clip0_2382_98)">
<path d="M164.386 98.6355V68.4915C164.386 66.2515 164.066 64.4595 163.426 63.1155C162.85 61.7075 162.178 60.6195 161.41 59.8515C160.642 59.0195 160.002 58.4115 159.49 58.0275L164.386 54.3795L172.258 61.3875C174.626 59.1475 176.834 57.3875 178.882 56.1075C180.994 54.7635 183.458 54.0915 186.274 54.0915C187.746 54.0915 189.346 54.4755 191.074 55.2435C192.866 56.0115 194.402 57.4515 195.682 59.5635C196.962 61.6115 197.602 64.6195 197.602 68.5875V98.6355H189.442V69.5475C189.442 66.5395 188.898 64.2355 187.81 62.6355C186.786 60.9715 184.866 60.1395 182.05 60.1395C179.298 60.1395 176.13 61.9315 172.546 65.5155V98.6355H164.386ZM211.906 98.6355V55.2435H219.874V98.6355H211.906ZM215.842 46.6995C214.434 46.6995 213.25 46.1875 212.29 45.1635C211.394 44.1395 210.946 42.9875 210.946 41.7075C210.946 40.2995 211.394 39.1155 212.29 38.1555C213.25 37.1955 214.434 36.7155 215.842 36.7155C217.186 36.7155 218.338 37.1955 219.298 38.1555C220.322 39.1155 220.834 40.2995 220.834 41.7075C220.834 42.9875 220.322 44.1395 219.298 45.1635C218.338 46.1875 217.186 46.6995 215.842 46.6995ZM235.08 98.6355V68.4915C235.08 66.2515 234.76 64.4595 234.12 63.1155C233.544 61.7075 232.872 60.6195 232.104 59.8515C231.336 59.0195 230.696 58.4115 230.184 58.0275L235.08 54.3795L242.76 61.3875C245.512 59.0835 248.04 57.2915 250.344 56.0115C252.648 54.7315 255.08 54.0915 257.64 54.0915C260.84 54.0915 263.24 54.8915 264.84 56.4915C266.44 58.0275 267.496 59.8195 268.008 61.8675C268.712 61.0995 269.768 60.1075 271.176 58.8915C272.648 57.6115 274.44 56.4915 276.552 55.5315C278.664 54.5715 281 54.0915 283.56 54.0915C286.056 54.0915 288.04 54.6355 289.512 55.7235C291.048 56.8115 292.2 58.2515 292.968 60.0435C293.736 61.7715 294.248 63.6275 294.504 65.6115C294.76 67.5955 294.888 69.4835 294.888 71.2755V98.6355H286.824V70.5075C286.824 68.8435 286.696 67.2115 286.44 65.6115C286.248 63.9475 285.672 62.5715 284.712 61.4835C283.752 60.3955 282.088 59.8515 279.72 59.8515C277.736 59.8515 275.688 60.4275 273.576 61.5795C271.464 62.6675 269.96 63.9155 269.064 65.3235V98.6355H260.904V70.0275C260.904 66.8275 260.424 64.3315 259.464 62.5395C258.504 60.7475 256.776 59.8515 254.28 59.8515C252.552 59.8515 250.824 60.2995 249.096 61.1955C247.368 62.0275 245.928 62.9235 244.776 63.8835C243.688 64.7795 243.144 65.3235 243.144 65.5155V98.6355H235.08ZM337.063 99.8835L329.287 92.8755C326.983 94.9875 324.711 96.6835 322.471 97.9635C320.295 99.1795 317.895 99.7875 315.271 99.7875C312.647 99.7875 310.279 98.9235 308.167 97.1955C306.055 95.4675 304.999 93.0035 304.999 89.8035C304.999 87.3075 305.831 85.2275 307.495 83.5635C309.159 81.8355 311.271 80.4595 313.831 79.4355C316.391 78.4115 319.047 77.6435 321.799 77.1315C324.551 76.6195 327.015 76.2995 329.191 76.1715V67.1475C329.191 61.8355 326.119 59.1795 319.975 59.1795C318.375 59.1795 316.519 59.3715 314.407 59.7555C312.359 60.0755 310.055 60.6515 307.495 61.4835L306.631 59.0835C307.335 58.5075 308.519 57.8355 310.183 57.0675C311.847 56.2995 313.767 55.6275 315.943 55.0515C318.119 54.4115 320.327 54.0915 322.567 54.0915C326.215 54.0915 329.031 54.6355 331.015 55.7235C332.999 56.7475 334.407 58.0915 335.239 59.7555C336.071 61.3555 336.583 63.0515 336.775 64.8435C336.967 66.5715 337.063 68.1395 337.063 69.5475V85.8675C337.063 88.0435 337.351 89.8355 337.927 91.2435C338.567 92.6515 339.271 93.7395 340.039 94.5075C340.871 95.2755 341.543 95.8515 342.055 96.2355L337.063 99.8835ZM318.919 95.3715C320.455 95.0515 321.991 94.4435 323.527 93.5475C325.127 92.5875 326.471 91.6275 327.559 90.6675C328.647 89.6435 329.191 88.9075 329.191 88.4595V78.5715C324.391 78.8915 320.551 79.9475 317.671 81.7395C314.855 83.4675 313.447 85.3235 313.447 87.3075C313.447 89.2915 313.959 91.0195 314.983 92.4915C316.071 93.8995 317.383 94.8595 318.919 95.3715ZM362.535 99.7875C359.911 99.7875 357.703 99.0195 355.911 97.4835C354.119 95.9475 353.223 93.3555 353.223 89.7075V58.6995L345.447 57.1635V55.2435H353.223V51.7875L361.287 45.9315V55.2435H372.711V58.6995H361.287V90.1875C361.287 91.9795 361.639 93.3875 362.343 94.4115C363.111 95.4355 364.519 95.9475 366.567 95.9475C367.463 95.9475 368.455 95.8195 369.543 95.5635C370.631 95.2435 371.687 94.8915 372.711 94.5075V97.1955C371.303 97.8355 369.703 98.4115 367.911 98.9235C366.183 99.4995 364.391 99.7875 362.535 99.7875ZM383.377 98.6355V33.0675H391.153V61.3875C393.521 59.1475 395.921 57.4195 398.353 56.2035C400.785 54.9235 403.409 54.2835 406.225 54.2835C407.761 54.2835 409.393 54.6675 411.121 55.4355C412.913 56.2035 414.417 57.6435 415.633 59.7555C416.913 61.8035 417.553 64.8115 417.553 68.7795V98.6355H409.489V69.7395C409.489 66.7315 408.945 64.4275 407.857 62.8275C406.833 61.1635 404.881 60.3315 402.001 60.3315C400.593 60.3315 398.929 60.7475 397.009 61.5795C395.153 62.3475 393.297 63.6275 391.441 65.4195V98.6355H383.377Z" fill="#000D4D"/>
<path d="M92.2999 38.0002V76.6315" stroke="#000D4D" stroke-width="7" stroke-linecap="round"/>
<path d="M122 100.881L134.125 93.5579" stroke="#000D4D" stroke-width="6" stroke-linecap="round"/>
<path d="M122 85.8318L134.125 93.1545" stroke="#000D4D" stroke-width="6" stroke-linecap="round"/>
<path d="M99.6546 44.1248L92.3319 32.0002" stroke="#000D4D" stroke-width="6" stroke-linecap="round"/>
<path d="M84.832 44.1248L92.1547 32.0002" stroke="#000D4D" stroke-width="6" stroke-linecap="round"/>
<path d="M128.346 93.5751L108 93.5002" stroke="#000D4D" stroke-width="7" stroke-linecap="round"/>
<path d="M185.175 132.441L182.774 115.357" stroke="#000D4D" stroke-width="6" stroke-linecap="round"/>
<path d="M168.319 125.241L182.321 115.164" stroke="#000D4D" stroke-width="6" stroke-linecap="round"/>
<path d="M105 79.383C141.323 -118.378 139 226.481 179 124.294" stroke="#000D4D" stroke-width="9" stroke-linecap="round"/>
<rect x="207" y="42.356" width="11.8172" height="11.8172" transform="rotate(-45 207 42.356)" fill="#000D4D"/>
<circle cx="92.4101" cy="92.41" r="10.3344" transform="rotate(-76.8826 92.4101 92.41)" fill="#9D47FF"/>
</g>
<defs>
<clipPath id="clip0_2382_98">
<rect width="425" height="167" fill="white"/>
</clipPath>
</defs>
</svg>
