<svg width="78" height="78" viewBox="0 0 78 78" fill="none" xmlns="http://www.w3.org/2000/svg">
<g clip-path="url(#clip0_2429_21)">
<ellipse cx="25" cy="32.5" rx="18" ry="17.5" fill="#FF4C82"/>
<ellipse cx="54" cy="31.5" rx="18" ry="17.5" fill="#FF4C82"/>
<ellipse cx="39" cy="46.5" rx="18" ry="17.5" fill="#FF4C82"/>
<path d="M68.8106 16.4926C65.2725 12.9649 60.4821 10.9806 55.4857 10.9732C50.4893 10.9657 45.693 12.9358 42.1444 16.453L39 19.3719L35.8556 16.453C32.3082 12.9144 27.5003 10.93 22.4897 10.9363C17.4791 10.9426 12.6762 12.9391 9.1376 16.4865C5.59901 20.034 3.61458 24.8419 3.62086 29.8525C3.62715 34.8631 5.62363 39.666 9.17111 43.2046L36.3949 70.8245C36.7351 71.17 37.1407 71.4443 37.5879 71.6316C38.0351 71.8188 38.5152 71.9153 39 71.9153C39.4849 71.9153 39.9649 71.8188 40.4121 71.6316C40.8594 71.4443 41.2649 71.17 41.6051 70.8245L68.8106 43.2229C70.5657 41.4686 71.9579 39.3858 72.9077 37.0933C73.8575 34.8009 74.3464 32.3438 74.3464 29.8623C74.3464 27.3809 73.8575 24.9238 72.9077 22.6313C71.9579 20.3389 70.5657 18.256 68.8106 16.5018V16.4926ZM63.631 38.0615L39 63.0397L14.3599 38.0401C12.1961 35.8673 10.9826 32.9247 10.9857 29.8582C10.9889 26.7916 12.2085 23.8516 14.3769 21.6832C16.5453 19.5148 19.4853 18.2952 22.5519 18.292C25.6184 18.2888 28.561 19.5023 30.7338 21.6662C30.7643 21.6967 30.7948 21.7272 30.8283 21.7546L36.5077 27.044C37.1844 27.6745 38.075 28.0251 39 28.0251C39.925 28.0251 40.8156 27.6745 41.4924 27.044L47.1717 21.7546C47.2053 21.7272 47.2357 21.6967 47.2662 21.6662C48.3427 20.5923 49.6202 19.7409 51.0258 19.1607C52.4313 18.5805 53.9374 18.2828 55.458 18.2847C56.9786 18.2865 58.484 18.5878 59.8881 19.1714C61.2922 19.755 62.5677 20.6095 63.6416 21.686C64.7155 22.7626 65.5669 24.0401 66.1471 25.4456C66.7273 26.8512 67.025 28.3572 67.0232 29.8778C67.0213 31.3984 66.72 32.9038 66.1364 34.3079C65.5528 35.7121 64.6983 36.9875 63.6218 38.0615H63.631Z" fill="#050047"/>
</g>
<defs>
<clipPath id="clip0_2429_21">
<rect width="78" height="78" fill="white"/>
</clipPath>
</defs>
</svg>
